<svg xmlns="http://www.w3.org/2000/svg" width="155" height="90" viewBox="0 0 155 90">
  <path fill="#FFF" fill-rule="evenodd" d="M17.9492188,87 L0.25390625,87 L0.25390625,2.44921875 L17.9492188,2.44921875 L17.9492188,40.125 L19.0039062,40.125 L50.234375,2.44921875 L69.921875,2.44921875 L39.1015625,39.5390625 L72.0898438,87 L50.8789062,87 L26.328125,51.609375 L17.9492188,61.5117188 L17.9492188,87 Z M154.121094,52.4882812 C154.121094,75.1054688 139.707031,89.1679688 116.621094,89.1679688 C91.484375,89.1679688 76.0742188,72.2929688 76.0742188,44.6367188 C76.0742188,17.390625 91.6015625,0.28125 116.210938,0.28125 C136.191406,0.28125 150.898438,11.8242188 153.359375,29.4023437 L135.78125,29.4023437 C133.144531,20.8476562 126.054688,15.8671875 116.210938,15.8671875 C102.558594,15.8671875 94.1796875,26.7070312 94.1796875,44.4609375 C94.1796875,62.5664063 102.96875,73.5820312 116.914062,73.5820312 C128.515625,73.5820312 136.542969,66.7265625 136.894531,56.53125 L136.953125,55.0078125 L118.613281,55.0078125 L118.613281,41.7070312 L154.121094,41.7070312 L154.121094,52.4882812 Z"/>
</svg>
